HIERARCHY
ROOT hip
{
	OFFSET 0.000000 0.000000 0.000000 
	CHANNELS 6 Xposition Yposition Zposition Xrotation Zrotation Yrotation
	JOINT abdomen
	{
		OFFSET 0.000000 3.402643 0.000000 
		CHANNELS 3 Xrotation Zrotation Yrotation
		JOINT chest
		{
			OFFSET 0.000000 8.438565 -0.680529 
			CHANNELS 3 Xrotation Zrotation Yrotation
			JOINT neck
			{
				OFFSET 0.000000 10.207942 -0.272212 
				CHANNELS 3 Xrotation Zrotation Yrotation
				JOINT head
				{
					OFFSET 0.000000 3.130431 0.000000 
					CHANNELS 3 Xrotation Zrotation Yrotation
					End Site
					{
						OFFSET 0.000000 3.130435 0.000000 
					}
				}
			}
			JOINT lCollar
			{
				OFFSET 3.470700 6.669187 -0.816635 
				CHANNELS 3 Yrotation Zrotation Xrotation
				JOINT lShldr
				{
					OFFSET 3.198488 0.000000 0.000000 
					CHANNELS 3 Zrotation Yrotation Xrotation
					JOINT lForeArm
					{
						OFFSET 10.139888 0.000000 0.000000 
						CHANNELS 3 Yrotation Zrotation Xrotation
						JOINT lHand
						{
							OFFSET 8.370511 0.000000 0.000000 
							CHANNELS 3 Zrotation Yrotation Xrotation
							End Site
							{
								OFFSET 4.083176 0.000000 0.000000 
							}
						}
					}
				}
			}
			JOINT rCollar
			{
				OFFSET -3.470700 6.669187 -0.816635 
				CHANNELS 3 Yrotation Zrotation Xrotation
				JOINT rShldr
				{
					OFFSET -3.198488 0.000000 0.000000 
					CHANNELS 3 Zrotation Yrotation Xrotation
					JOINT rForeArm
					{
						OFFSET -10.139888 0.000000 0.000000 
						CHANNELS 3 Yrotation Zrotation Xrotation
						JOINT rHand
						{
							OFFSET -8.370511 0.000000 0.000000 
							CHANNELS 3 Zrotation Yrotation Xrotation
							End Site
							{
								OFFSET -4.083176 0.000000 0.000000 
							}
						}
					}
				}
			}
		}
	}
	JOINT lThigh
	{
		OFFSET 5.308129 -1.633274 1.361059 
		CHANNELS 3 Xrotation Zrotation Yrotation
		JOINT lShin
		{
			OFFSET -2.041588 -20.007561 0.000000 
			CHANNELS 3 Xrotation Zrotation Yrotation
			JOINT lFoot
			{
				OFFSET 0.000000 -19.190928 -1.224953 
				CHANNELS 3 Xrotation Yrotation Zrotation
				End Site
				{
					OFFSET 0.000000 -2.449906 4.627600 
				}
			}
		}
	}
	JOINT rThigh
	{
		OFFSET -5.308129 -1.633274 1.361059 
		CHANNELS 3 Xrotation Zrotation Yrotation
		JOINT rShin
		{
			OFFSET 2.041588 -20.007561 0.000000 
			CHANNELS 3 Xrotation Zrotation Yrotation
			JOINT rFoot
			{
				OFFSET 0.000000 -19.190928 -1.224953 
				CHANNELS 3 Xrotation Yrotation Zrotation
				End Site
				{
					OFFSET 0.000000 -2.449906 4.627600 
				}
			}
		}
	}
}
MOTION
Frames: 11
Frame Time: 0.016667
37.187546 33.040920 154.098663 4.028650 -4.939000 -40.172001 -15.541600 -4.748260 9.053960 22.072701 -9.742750 3.658150 4.033693 12.316044 -18.155827 9.730590 11.116000 -3.601060 2.000000 -2.000000 0.000000 45.374298 -14.816500 126.806999 99.024002 -0.191873 0.154477 0.141469 -0.157056 156.438004 -2.000000 2.000000 0.000000 -60.440102 29.648199 93.334900 -33.525700 0.328820 0.075514 -0.060024 0.042107 -152.136993 -50.731857 28.440342 -1.365611 57.023125 2.395419 3.443727 -1.576607 -7.271902 3.469276 -11.897689 -24.483923 -19.020144 67.781776 -1.279965 -3.992044 -28.643461 -14.794562 -8.881888 
37.439072 32.805683 153.877350 3.303120 -4.903990 -40.625099 -14.890100 -4.073450 9.228890 22.367901 -9.370400 3.864320 3.512936 11.089058 -18.037605 9.366660 10.841300 -3.882150 2.000000 -2.000000 0.000000 45.781601 -11.656500 123.871002 94.229103 -0.204047 0.155892 0.125550 -0.139341 162.794998 -2.000000 2.000000 0.000000 -58.151299 31.637800 101.612000 -31.377300 0.331571 0.071188 -0.054400 0.000601 -137.136993 -50.474148 28.413746 -0.797270 57.612282 2.365437 3.472120 -1.643951 -7.313955 3.459453 -12.487558 -25.926357 -19.401726 69.088104 -1.150954 -4.048283 -28.840750 -14.355820 -8.651979 
37.730145 32.556293 153.614487 2.479400 -4.800210 -40.930401 -14.368000 -3.574750 8.935380 22.306499 -8.950970 3.827980 2.862371 9.858754 -17.358770 8.834330 10.549400 -3.949530 2.000000 -2.000000 0.000000 46.853298 -7.754220 120.750999 89.863800 -0.215174 0.136761 0.108238 -0.127917 170.207001 -2.000000 2.000000 0.000000 -54.335999 32.790100 114.880997 -36.797298 0.324326 0.081895 -0.054793 -0.001492 -132.897995 -50.334366 28.367683 -0.371764 58.065540 2.313683 3.501910 -1.653639 -7.476424 3.373346 -13.207339 -27.555590 -19.701847 70.656639 -1.050619 -4.088112 -29.082870 -13.977032 -8.379563 
38.054012 32.282074 153.307800 1.724300 -4.597540 -41.681599 -14.031800 -3.364410 8.653130 21.970400 -8.962160 3.793040 2.364919 8.628020 -16.343597 8.340990 10.138700 -3.884480 2.000000 -2.000000 0.000000 48.269299 -5.513210 116.285004 85.830597 -0.224790 0.136401 -179.916000 -179.893997 1.838090 -2.000000 2.000000 0.000000 -50.282700 34.954201 126.115997 -44.277802 0.312733 0.095451 -0.055983 0.022486 -144.977997 -50.075325 28.405634 0.454301 58.526394 2.301646 3.523726 -1.845653 -7.474994 3.353782 -14.479832 -29.071310 -19.166904 72.157539 -0.935335 -4.133382 -29.190435 -13.385787 -7.998457 
38.376312 32.013588 153.025818 0.832139 -4.032780 -43.027802 -13.887000 -3.307440 8.133190 21.446301 -8.905190 3.610910 2.177498 7.445171 -14.616072 7.897750 9.657810 -3.566320 2.000000 -2.000000 0.000000 48.799099 -4.922780 110.736000 83.711502 -0.229825 0.135941 0.068557 -0.065893 -161.169998 -2.000000 2.000000 0.000000 -45.833900 37.585899 135.623993 -54.033699 0.295144 0.110659 -0.074780 0.067151 -157.878998 -49.410912 28.583847 1.993022 59.036472 2.272521 3.533846 -2.335498 -7.259847 3.339048 -16.409754 -30.894299 -17.676636 73.726479 -0.815241 -4.166996 -29.135124 -12.547585 -7.447322 
38.728828 31.734426 152.730377 -0.068469 -3.242190 -44.898499 -13.924000 -3.594800 7.417260 20.655500 -9.062490 3.313160 2.353150 6.373990 -12.220349 7.561590 8.901720 -2.926200 2.000000 -2.000000 0.000000 49.460098 -4.625100 103.546997 84.336502 -0.228342 0.136096 0.045261 -0.014175 -141.990005 -2.000000 2.000000 0.000000 -40.941399 41.002201 142.009995 -62.539600 0.277894 0.121319 -0.064152 0.055080 -157.000000 -48.651012 28.910305 3.862793 59.546516 2.242142 3.543182 -3.002608 -6.783852 3.288270 -19.123243 -32.571564 -15.118948 75.159813 -0.689846 -4.225682 -29.092621 -11.610668 -6.888681 
39.093250 31.455265 152.415833 -0.938221 -2.245790 -46.906601 -14.080600 -3.952310 6.602300 19.705999 -9.149400 2.967140 2.577249 5.612168 -9.976195 7.367180 8.299410 -2.249130 2.000000 -2.000000 0.000000 49.939201 -6.347130 95.010803 87.432198 -0.220975 0.136625 0.045255 0.004354 -131.873001 -2.000000 2.000000 0.000000 -36.099300 45.047001 146.143005 -70.723198 0.259984 0.129059 -0.061671 0.047750 -154.235992 -47.973877 29.093962 5.810540 59.988720 2.203675 3.559349 -3.485162 -6.384655 3.293325 -22.237146 -34.102531 -12.240320 76.345200 -0.605447 -4.226136 -29.345573 -10.757790 -6.452538 
39.466328 31.150381 152.064209 -1.582290 -1.044520 -48.887199 -14.100200 -4.767280 6.057130 19.119200 -9.899290 2.688250 3.008810 4.348118 -7.822978 7.385760 7.207250 -1.665340 2.000000 -2.000000 0.000000 51.876301 -9.726120 85.406898 91.729103 -0.210429 0.156225 0.044668 0.003363 -135.720993 -2.000000 2.000000 0.000000 -29.536200 48.797798 150.589005 -77.891197 0.243528 0.133683 -0.075345 0.068604 -158.434998 -47.758926 29.270233 7.678262 60.322750 2.180716 3.577056 -3.891581 -6.180069 3.307288 -25.709372 -35.274708 -9.291574 77.317490 -0.501937 -4.257952 -29.944895 -10.336303 -6.300601 
39.848953 30.915705 151.656418 -1.982460 0.351352 -50.793400 -14.244200 -4.973190 4.874490 18.269800 -9.435970 2.152180 3.245609 3.533636 -4.932850 7.389090 6.495510 -0.720543 2.000000 -2.000000 0.000000 52.557499 -13.454200 78.411201 95.693901 -0.200316 0.155568 0.047148 -0.028292 -147.078003 -2.000000 2.000000 0.000000 -23.050699 54.022301 155.223007 -82.334503 0.233086 0.135503 -0.078593 0.066490 -161.404007 -47.910313 29.411245 9.442412 60.441456 2.162649 3.592797 -4.258032 -5.740443 3.317709 -29.586287 -36.094673 -6.301501 78.270164 -0.398969 -4.288018 -30.351500 -9.668854 -5.983633 
40.268311 30.589025 151.209320 -2.237490 1.844300 -52.591499 -14.411300 -5.003130 3.858810 17.393400 -8.912400 1.709870 3.086040 2.311414 -1.874243 7.639810 5.957200 0.211968 2.000000 -2.000000 0.000000 53.222599 -18.266399 74.255402 100.333000 -0.188576 0.153914 0.066230 -0.060464 -159.059998 -2.000000 2.000000 0.000000 -13.560500 58.411301 162.139999 -84.473198 0.228017 0.136090 -0.080162 0.069832 -162.722000 -48.821960 29.439037 10.845793 60.685917 2.164972 3.597172 -4.353813 -5.122939 3.449131 -34.280048 -36.954174 -3.371729 79.605789 -0.246320 -4.319205 -30.168549 -8.804062 -5.427718 
40.729458 30.207413 150.755463 -2.347260 3.132140 -54.161301 -14.358800 -4.782130 2.925450 16.716900 -8.370110 1.330970 3.123813 1.271343 0.905299 7.751130 5.186330 1.013030 2.000000 -2.000000 0.000000 54.908501 -23.828300 68.384598 104.024002 -0.179352 0.151922 0.069388 -0.067708 -161.882996 -2.000000 2.000000 0.000000 -3.020330 61.312599 170.209000 -84.531799 0.227877 0.136103 -0.081558 0.072649 -163.845993 -50.091686 29.908463 11.809192 61.215393 2.131435 3.603007 -4.530285 -5.012112 3.437297 -38.996780 -37.572525 -0.956546 81.148750 -0.076385 -4.382689 -29.860369 -8.200578 -4.957282 
